<?xml version="1.0" encoding="utf-8"?>
<!-- Generator: Adobe Illustrator 29.8.2, SVG Export Plug-In . SVG Version: 9.03 Build 0)  -->
<svg version="1.0" id="Layer_1" xmlns="http://www.w3.org/2000/svg" xmlns:xlink="http://www.w3.org/1999/xlink" x="0px" y="0px"
	 viewBox="0 0 630 157" style="enable-background:new 0 0 630 157;" xml:space="preserve">
<style type="text/css">
	.st0{fill:#B7B53E;}
	.st1{fill:#77AE46;}
	.st2{fill:#8BB342;}
	.st3{fill:#82DB2E;fill-opacity:0.651;}
	.st4{fill:#A9CF40;fill-opacity:0.651;}
	.st5{fill:#ACEA8F;fill-opacity:0.651;}
	.st6{clip-path:url(#SVGID_00000152238890723133525560000010286197578957861266_);}
	.st7{clip-path:url(#SVGID_00000166638706726863599210000010480238251770632629_);}
	.st8{fill:#84CC35;}
</style>
<path class="st0" d="M45.41,78.17v45.88l39.73-68.82L45.41,78.17z"/>
<path class="st1" d="M45.41,124.05V78.17L5.68,55.23L45.41,124.05z"/>
<path class="st2" d="M45.41,78.17l39.73-22.94H5.68L45.41,78.17z"/>
<path class="st3" d="M45.41,32.29L25.55,66.7h39.73L45.41,32.29z"/>
<path class="st4" d="M65.28,66.7L45.41,101.1h39.73L65.28,66.7z"/>
<path class="st5" d="M25.55,66.7l19.86,34.41H5.68L25.55,66.7z"/>
<g>
	<defs>
		<rect id="SVGID_1_" x="100.73" y="36.9" width="525" height="110.67"/>
	</defs>
	<clipPath id="SVGID_00000087403295083502344810000006490408010650112132_">
		<use xlink:href="#SVGID_1_"  style="overflow:visible;"/>
	</clipPath>
	<g style="clip-path:url(#SVGID_00000087403295083502344810000006490408010650112132_);">
		<g transform="matrix(1, 0, 0, 1, 78, 25)">
			<g>
				<defs>
					<rect id="SVGID_00000116920842337593202810000001509969696799782273_" x="22.73" y="11.9" width="525.33" height="110.67"/>
				</defs>
				<clipPath id="SVGID_00000145054301699311192730000006775150440721421733_">
					<use xlink:href="#SVGID_00000116920842337593202810000001509969696799782273_"  style="overflow:visible;"/>
				</clipPath>
				<g style="clip-path:url(#SVGID_00000145054301699311192730000006775150440721421733_);">
					<g>
						<g transform="translate(0.546512, 49.27248)">
							<g>
								<path class="st8" d="M94.45,27.64c0,0.75-0.33,1.41-1,1.98c-0.66,0.58-1.39,0.88-2.21,0.88c-0.64,0-1.25-0.25-1.83-0.75
									c-0.57-0.49-0.94-1.28-1.1-2.38l-1.4-8.33l-1.12-2.69l-0.19-5.29l-0.52-2.44l0.52-4.17l-1.38-16.67
									c-0.07-0.93-0.29-1.86-0.67-2.79c-0.38-0.93-0.97-1.4-1.77-1.4c-0.58,0-1.17,0.37-1.75,1.1c-0.57,0.72-1.08,1.49-1.54,2.29
									l-4,6.42L70.14,3.74l-4.25,4.71l-3.04,4.94c-0.35,0.64-0.71,1.18-1.08,1.6c-0.38,0.43-0.99,0.65-1.85,0.65
									c-0.82,0-1.42-0.38-1.79-1.12s-0.71-1.5-1-2.25l-2.17-6.52l-1.04-1.38l-0.6-3.04l-1.83-2.08c0,0-0.22-0.43-0.65-1.29
									c-0.43-0.88-0.98-1.94-1.65-3.19c-0.67-1.25-1.41-2.51-2.23-3.77c-0.81-1.28-1.58-2.34-2.33-3.21
									c-0.75-0.88-1.42-1.31-2-1.31c-0.58,0-1.17,0.47-1.75,1.4c-0.57,0.92-0.85,1.96-0.85,3.12c0,0.52,0.13,1.1,0.4,1.77
									c0.26,0.67,0.4,1.44,0.4,2.31c0,0.81-0.12,1.69-0.35,2.65c-0.24,0.96-0.47,1.77-0.71,2.44c-0.22,0.66-0.33,0.98-0.33,0.98
									l0.17,2.88l-0.6,3.4l0.27,7.02l-0.79,2.96l-0.52,6.6c-0.06,0.7-0.29,1.39-0.69,2.08c-0.41,0.7-0.93,1.04-1.56,1.04
									c-0.53,0-1.18-0.23-1.96-0.69c-0.78-0.47-1.17-1.08-1.17-1.83c0-0.64,0.08-1.39,0.25-2.25c0.18-0.88,0.35-1.63,0.52-2.27
									c0.18-0.64,0.27-0.96,0.27-0.96l-0.35-1.81l0.96-5.21V4.53l0.88-2.88c0,0,0.05-0.92,0.17-2.77
									c0.11-1.84,0.17-4.22,0.17-7.12c0-3.12,0.23-5.98,0.69-8.58c0.47-2.61,1.09-4.71,1.88-6.29c0.78-1.59,1.63-2.4,2.56-2.4
									c0.46,0,0.98,0.28,1.56,0.83c0.58,0.54,1.07,1.14,1.48,1.77c0.4,0.52,0.94,1.24,1.6,2.17c0.67,0.93,1.33,1.88,2,2.83
									c0.67,0.95,1.21,1.75,1.65,2.42c0.43,0.67,0.65,1,0.65,1l1.56,1.65l1.83,4.79c0,0,0.28,0.36,0.85,1.08
									c0.58,0.72,1.26,1.59,2.04,2.6c0.79,1.02,1.48,1.98,2.06,2.9c0.46,0.7,0.77,1.48,0.94,2.35c0.18,0.86,0.42,1.63,0.71,2.29
									s0.86,1,1.73,1c0.93,0,1.94-0.69,3.04-2.08c1.09-1.39,2.57-3.99,4.44-7.81c0.57-1.21,1.32-2.71,2.25-4.5
									c0.93-1.8,1.9-3.7,2.9-5.69c1.01-2,1.98-3.9,2.92-5.69c0.93-1.8,1.71-3.3,2.35-4.48c0.64-1.19,0.98-1.88,1.04-2.04
									c0.51-0.98,1.26-1.65,2.25-2c0.98-0.34,1.71-0.52,2.17-0.52c0.82,0,1.35,0.55,1.6,1.65c0.26,1.1,0.51,2.64,0.75,4.6
									c0.11,0.53,0.32,1.42,0.65,2.67c0.32,1.24,0.67,2.63,1.04,4.17c0.38,1.53,0.68,3.04,0.92,4.54
									c0.05,0.29,0.09,0.58,0.12,0.88c0.03,0.29,0.04,0.58,0.04,0.85c0,0.64-0.04,1.25-0.12,1.83c-0.08,0.58-0.12,1.19-0.12,1.81
									c0,0.24,0.01,0.52,0.04,0.83c0.03,0.32,0.07,0.62,0.12,0.92c0.18,0.75,0.42,1.5,0.73,2.25c0.32,0.75,0.48,1.12,0.48,1.12
									l0.19,11.38l3.04,14.85c0.11,0.75,0.21,1.41,0.29,1.96C94.41,26.22,94.45,26.88,94.45,27.64z"/>
							</g>
						</g>
					</g>
					<g>
						<g transform="translate(60.72414, 49.27248)">
							<g>
								<path class="st8" d="M80.49,18.78c0,0-0.02,0.48-0.06,1.44c-0.03,0.95-0.11,1.93-0.25,2.94c-0.14,1.02-0.39,1.6-0.73,1.77
									c-0.35,0.12-0.64,0.19-0.88,0.19c-0.41,0-0.75-0.04-1.04-0.12c-0.29-0.09-0.44-0.15-0.44-0.15l-3.48-2.6l-6.94,1.48
									c-1.33,0.29-2.62,0.5-3.88,0.62c-1.24,0.11-2.38,0.17-3.42,0.17c-1.62,0-2.89-0.57-3.79-1.73
									c-0.89-1.17-1.83-2.39-2.81-3.67c-0.88-1.09-1.62-2.21-2.23-3.33c-0.6-1.14-0.9-2.08-0.9-2.83c0-2.03,0.28-3.92,0.85-5.69
									c0.58-1.76,1.25-3.34,2-4.73c0.76-1.39,1.43-2.47,2-3.25c0.58-0.78,0.88-1.17,0.88-1.17l2.08-3.15l1.56-0.69
									c0,0,0.44-0.26,1.33-0.77c0.9-0.53,1.9-0.79,3-0.79c0.82,0,1.72,0.2,2.71,0.6c0.98,0.41,1.85,0.6,2.6,0.6
									c0.46,0,0.8-0.11,1.04-0.33l1.65-1.75c0,0,0.16-0.05,0.48-0.17c0.32-0.11,0.65-0.17,1-0.17c0.51,0,1.06,0.45,1.65,1.35
									c0.58,0.89,1.1,1.99,1.56,3.29c0.46,1.31,0.75,2.56,0.88,3.77l0.44,3.73l1.81,8.17v3.81L80.49,18.78z M72.93,9.91
									c0-0.62-0.1-1.26-0.31-1.9c-0.2-0.64-0.29-0.96-0.29-0.96l-1.83-2.96l-0.77-1.65c0,0-0.31-0.19-0.92-0.56
									c-0.61-0.38-1.4-0.73-2.35-1.08c-0.95-0.34-1.97-0.52-3.08-0.52c-1.45,0-2.88,0.47-4.29,1.4c-1.42,0.92-2.6,2.14-3.56,3.65
									c-0.95,1.5-1.42,3.12-1.42,4.85c0,0.52,0.11,1.1,0.33,1.77c0.23,0.67,0.45,1.27,0.65,1.79c0.21,0.52,0.31,0.77,0.31,0.77
									l2.35,1.83l1.46,1.29c0,0,0.4,0.2,1.21,0.58c0.82,0.38,1.46,0.56,1.92,0.56c3.19,0,5.76-0.78,7.69-2.35
									C71.95,14.86,72.93,12.69,72.93,9.91z"/>
							</g>
						</g>
					</g>
					<g>
						<g transform="translate(94.460125, 49.27248)">
							<g>
								<path class="st8" d="M95.99,9.91c0,0.18,0,0.35,0,0.5c0,0.14,0,0.27,0,0.38c0,0.88-0.2,1.62-0.6,2.25l-2.79,3.83
									c-0.06,0.06-0.36,0.23-0.92,0.52c-0.54,0.29-1.28,0.58-2.21,0.88c-0.41,0.22-1.02,0.54-1.83,0.96
									c-0.81,0.41-1.44,0.6-1.9,0.6c0,0-0.02,0-0.04,0c-0.03,0-0.04,0-0.04,0l-7.04-0.62c-0.06,0-0.08,0-0.08,0s-0.03,0-0.08,0
									c-1.1,0-1.89,0.7-2.35,2.08c-0.46,1.39-0.69,2.93-0.69,4.6c0,0.12,0,0.28,0,0.46c0,0.17,0,0.31,0,0.42l0.35,5.56
									c0.05,0.98,0.28,1.68,0.69,2.08c0.4,0.4,0.9,0.75,1.48,1.04l1.73,0.69c0.12,0.18,0.39,0.48,0.79,0.92
									c0.4,0.43,0.92,0.96,1.56,1.6c2.83,2.32,5,4.24,6.5,5.77c1.51,1.54,2.55,3.06,3.12,4.56c0.58,1.5,0.88,3.38,0.88,5.65
									c0,4.75-1.66,8.41-4.96,10.98c-3.29,2.58-7.83,3.88-13.62,3.88c-2.67,0-5.02-0.41-7.04-1.23c-2.02-0.81-3.58-1.6-4.69-2.4
									c-1.1-0.78-1.65-1.17-1.65-1.17l-5.38-4.85l-0.6-2.96c0,0-0.15-0.61-0.44-1.83c-0.29-1.21-0.44-2.45-0.44-3.71
									c0-7.47,3.21-12.28,9.65-14.42l6.58-3.4l0.35-3.04l-0.08-2.33l0.6-3.4l-0.08-2.08l0.6-3.73c0-0.05,0-0.08,0-0.08
									s0-0.03,0-0.08c0-0.58-0.32-1.28-0.96-2.08c-0.64-0.82-1.32-1.56-2.04-2.23c-0.72-0.67-1.17-1.05-1.33-1.17l-3.56-5.04
									l-0.88-5.13l0.79-4.17l1.12-1.13l0.52-1.12l2.77-2.96c1.33-1.55,2.72-2.72,4.17-3.5c1.44-0.79,3.15-1.19,5.12-1.19
									c0.29,0,0.8,0.14,1.52,0.4c0.72,0.27,1.5,0.56,2.33,0.88c0.84,0.31,1.57,0.59,2.19,0.85c0.61,0.27,0.92,0.4,0.92,0.4
									l5.29,1.56c1.21,0.35,2.32,1.36,3.33,3.04c1.01,1.68,1.82,3.74,2.44,6.17C95.68,4.8,95.99,7.31,95.99,9.91z M86.78,56.28
									l-0.69-2.96v-2.42c0-0.64-0.58-1.56-1.75-2.75c-1.16-1.18-2.53-2.41-4.12-3.69c-1.58-1.27-3.14-2.33-4.65-3.21
									c-1.5-0.86-2.6-1.29-3.29-1.29c-0.93,0-2.06,0.28-3.4,0.85c-1.32,0.58-2.51,1.17-3.56,1.77c-1.04,0.61-1.65,1.01-1.81,1.19
									l-1.21,1.21c0,0-0.2,0.17-0.58,0.52c-0.38,0.34-0.78,0.71-1.21,1.08c-0.43,0.38-0.74,0.68-0.92,0.92l-0.69,2.96
									c0.11,0.46,0.31,1.36,0.6,2.73c0.29,1.36,0.8,2.73,1.52,4.13c0.72,1.39,1.72,2.46,3,3.21c2.03,1.28,4.03,2.16,6.02,2.65
									c2,0.5,3.81,0.75,5.44,0.75c1.73,0,3.47-0.33,5.21-1c1.73-0.67,3.19-1.54,4.38-2.6c1.19-1.07,1.79-2.19,1.79-3.35
									C86.86,56.69,86.83,56.46,86.78,56.28z M90.26,6.89c0-2.38-0.66-4.59-1.96-6.65c-1.31-2.05-2.85-3.32-4.65-3.79l-1.4-0.42
									l-2.17,0.25l-1.92-0.88L76.8-5.03c-0.35-0.11-0.64-0.17-0.88-0.17c-0.99,0-2,0.51-3.04,1.52c-1.04,1.02-1.91,2.19-2.6,3.52
									c-0.7,1.33-1.04,2.52-1.04,3.56c0,1.68,0.6,3.33,1.81,4.96c1.22,1.61,2.88,2.94,4.96,3.98c2.08,1.04,4.36,1.56,6.85,1.56
									c2.43,0,4.27-0.65,5.52-1.94C89.63,10.67,90.26,8.97,90.26,6.89z"/>
							</g>
						</g>
					</g>
					<g>
						<g transform="translate(130.996519, 49.27248)">
							<g>
								<path class="st8" d="M85.66-7.45l-0.69,4.52l0.52,9.98l-0.44,2c0,0-0.15,0.61-0.44,1.83c-0.29,1.21-0.44,2.33-0.44,3.38
									c0,0.75,0.05,1.58,0.17,2.48c0.12,0.89,0.26,1.67,0.4,2.33c0.15,0.67,0.23,1,0.23,1l-0.44,1.83
									c-0.24,0.86-0.64,1.62-1.19,2.29c-0.54,0.67-1.16,1-1.85,1c-0.86,0-1.44-0.28-1.73-0.85c-0.29-0.58-0.44-1.46-0.44-2.62
									c0-0.29,0.08-0.78,0.25-1.48c0.18-0.69,0.27-1.35,0.27-1.98l-0.25-5.65c0,0-0.05-0.48-0.15-1.44
									c-0.08-0.96-0.17-2.19-0.25-3.69c-0.08-1.51-0.12-3.05-0.12-4.6c0-1.44,0.05-2.82,0.17-4.12c0.11-1.3,0.31-2.36,0.6-3.17
									l0.79-2.35l0.85-2.52c0.18-0.46,0.5-0.88,0.96-1.25c0.46-0.38,0.9-0.56,1.31-0.56c0.69,0,1.11,0.38,1.25,1.12
									c0.14,0.75,0.21,1.12,0.21,1.12L85.66-7.45z M84.98-27.51c0,1.62-0.4,2.99-1.19,4.08c-0.78,1.1-1.6,1.68-2.46,1.73
									c-0.06,0-0.12,0-0.19,0c-0.06,0-0.14,0-0.25,0c-0.58,0-1.12-0.07-1.6-0.21c-0.49-0.15-0.82-0.4-1-0.75l-1.04-1.73l0.44-2.44
									l2.08-2.08l1.12-1.73l1.83,0.17c0.75,0.12,1.31,0.41,1.69,0.83C84.79-29.2,84.98-28.49,84.98-27.51z"/>
							</g>
						</g>
					</g>
					<g>
						<g transform="translate(152.944474, 49.27248)">
							<g>
								<path class="st8" d="M109.75-0.32l-2.69,1.04l-2.35-2.96l-3.29-1.92l-2.27,0.44L97.58-3.8l-1.9,0.88l-2.27,0.85
									c0,0-0.28,0.35-0.83,1.04c-0.54,0.7-1.18,1.67-1.9,2.92c-0.72,1.24-1.36,2.66-1.92,4.25c-0.54,1.6-0.81,3.29-0.81,5.08
									c0,1.68,0.43,3.08,1.29,4.21c0.88,1.13,1.73,1.95,2.56,2.48c0.83,0.52,1.25,0.77,1.25,0.77l12.52-0.6c0,0,0.01,0,0.04,0
									c0.03,0,0.04,0,0.04,0c0.69,0,1.38,0.32,2.04,0.96c0.67,0.64,1,1.31,1,2c0,0.58-0.4,1.09-1.19,1.52
									c-0.78,0.43-1.74,0.88-2.9,1.33c-0.64,0.29-1.29,0.58-1.96,0.88c-0.67,0.29-1.29,0.44-1.88,0.44c-0.28,0-0.8-0.07-1.56-0.21
									c-0.75-0.15-1.45-0.3-2.08-0.44c-0.62-0.15-0.94-0.23-0.94-0.23l-3.23-0.08c-1.45-0.05-2.53-0.42-3.25-1.08
									c-0.72-0.67-1.7-1.52-2.92-2.56l-3.04-2.6l-0.17-2.08l-0.96-3.92L83,9.91l0.08-2.17l2.6-8.58c0.12-0.47,0.5-1.05,1.12-1.75
									c0.64-0.69,1.33-1.38,2.08-2.04c0.76-0.67,1.42-1.21,1.96-1.65c0.55-0.43,0.83-0.65,0.83-0.65l2.33-1.65h1.75
									c0,0,0.31-0.07,0.94-0.21c0.64-0.15,1.22-0.23,1.75-0.23c1.84,0,3.62,0.29,5.33,0.88c1.71,0.57,3.12,1.29,4.25,2.17
									c1.14,0.86,1.71,1.7,1.71,2.52V-0.32z"/>
							</g>
						</g>
					</g>
					<g>
						<g transform="translate(185.638423, 49.27248)">
						</g>
					</g>
					<g>
						<g transform="translate(208.432977, 49.27248)">
							<g>
								<path class="st8" d="M137.71-19.26c0,2.49-0.51,4.74-1.52,6.77c-1.02,2.03-2.24,3.81-3.69,5.35
									c-1.45,1.53-2.91,2.83-4.4,3.9c-1.47,1.07-2.72,1.87-3.73,2.4c-1.02,0.52-1.52,0.77-1.52,0.77l-2.33,1.92l-5.4,0.52
									l-3.65,1.04l-1.73,3.65l-0.08,4.77l0.44,1.73l-0.44,3.83v4.69l-0.08,5.12c0,0.41-0.18,0.85-0.52,1.33
									c-0.35,0.5-0.72,0.92-1.1,1.27c-0.38,0.34-0.56,0.52-0.56,0.52s-0.18,0.26-0.52,0.77c-0.35,0.53-0.72,0.79-1.12,0.79
									c-0.52,0-0.91-0.2-1.17-0.6c-0.27-0.41-0.45-0.81-0.56-1.23c-0.11-0.41-0.17-0.6-0.17-0.6l-0.88-1.73l0.52-2.08l-0.17-4
									l1.04-3.56V8.87l0.77-2.94l-0.08-4.35l0.96-5.29l0.08-5.38c0,0,0.07-0.32,0.21-0.96c0.15-0.64,0.26-1.28,0.31-1.92
									c0.17-0.69,0.26-1.46,0.29-2.29c0.04-0.84,0.06-1.82,0.06-2.92c0-0.75,0-1.55,0-2.42c0-0.88,0-1.83,0-2.88
									c0-3.25,0.69-5.52,2.08-6.81c1.39-1.3,3.76-1.96,7.1-1.96c0.93,0,1.9,0.08,2.92,0.23c1.01,0.14,1.52,0.21,1.52,0.21
									l8.42,2.6c0.34,0.11,0.98,0.45,1.92,1c0.93,0.54,1.92,1.25,2.96,2.12c1.04,0.86,1.94,1.8,2.69,2.81
									C137.33-21.24,137.71-20.24,137.71-19.26z M131.46-17.34c0-1.39-0.47-2.6-1.4-3.65c-0.92-1.04-2.07-1.62-3.46-1.75
									l-4.44-0.52l-2-1.29l-2.25,0.25c-1.52,0.12-2.65,0.49-3.4,1.1c-0.75,0.6-1.24,1.24-1.48,1.94c-0.22,0.7-0.33,1.27-0.33,1.73
									c0,0.24,0.01,0.42,0.04,0.54c0.03,0.11,0.04,0.17,0.04,0.17l-1.31,4.69l0.27,2.33l-0.79,2.96l-0.25,1.92
									c0,0.06,0,0.11,0,0.17c0,0.06,0,0.15,0,0.27c0,0.62,0.23,1.16,0.69,1.6c0.46,0.43,1.12,0.65,2,0.65
									c1.39,0,3.09-0.42,5.12-1.25c2.03-0.84,4.02-1.92,5.98-3.21c1.97-1.3,3.62-2.72,4.96-4.25
									C130.79-14.49,131.46-15.95,131.46-17.34z"/>
							</g>
						</g>
					</g>
					<g>
						<g transform="translate(247.18371, 49.27248)">
							<g>
								<path class="st8" d="M124.39-7.45l-0.69,4.52l0.52,9.98l-0.44,2c0,0-0.15,0.61-0.44,1.83c-0.29,1.21-0.44,2.33-0.44,3.38
									c0,0.75,0.05,1.58,0.17,2.48c0.12,0.89,0.26,1.67,0.4,2.33c0.15,0.67,0.23,1,0.23,1l-0.44,1.83
									c-0.24,0.86-0.64,1.62-1.19,2.29c-0.54,0.67-1.16,1-1.85,1c-0.86,0-1.44-0.28-1.73-0.85c-0.29-0.58-0.44-1.46-0.44-2.62
									c0-0.29,0.08-0.78,0.25-1.48c0.18-0.69,0.27-1.35,0.27-1.98l-0.25-5.65c0,0-0.05-0.48-0.15-1.44
									c-0.08-0.96-0.17-2.19-0.25-3.69c-0.08-1.51-0.12-3.05-0.12-4.6c0-1.44,0.05-2.82,0.17-4.12c0.11-1.3,0.31-2.36,0.6-3.17
									l0.79-2.35l0.85-2.52c0.18-0.46,0.5-0.88,0.96-1.25c0.46-0.38,0.9-0.56,1.31-0.56c0.69,0,1.11,0.38,1.25,1.12
									c0.14,0.75,0.21,1.12,0.21,1.12L124.39-7.45z M123.71-27.51c0,1.62-0.4,2.99-1.19,4.08c-0.78,1.1-1.6,1.68-2.46,1.73
									c-0.06,0-0.12,0-0.19,0c-0.06,0-0.14,0-0.25,0c-0.58,0-1.12-0.07-1.6-0.21c-0.49-0.15-0.82-0.4-1-0.75l-1.04-1.73l0.44-2.44
									l2.08-2.08l1.12-1.73l1.83,0.17c0.75,0.12,1.31,0.41,1.69,0.83C123.52-29.2,123.71-28.49,123.71-27.51z"/>
							</g>
						</g>
					</g>
					<g>
						<g transform="translate(269.782907, 49.27248)">
							<g>
								<path class="st8" d="M151.74-11.09l-2.88,3.65l-0.77,1.9l-3.23,3.04l-2,3.92c-0.28,0.64-0.59,1.21-0.94,1.71
									c-0.35,0.49-0.52,1.1-0.52,1.85c0,0.81,0.3,1.73,0.9,2.77c0.61,1.04,1.22,1.95,1.83,2.71c0.61,0.75,0.92,1.12,0.92,1.12
									l0.44,1.65l3.02,2.52l0.35,2.52c0,0,0,0.04,0,0.12c0,0.08,0,0.18,0,0.29c0,0.53-0.12,1.24-0.35,2.15
									c-0.22,0.89-0.85,1.33-1.9,1.33c-0.64,0-1.34-0.23-2.1-0.69c-0.75-0.47-1.39-0.92-1.92-1.35c-0.52-0.43-0.77-0.65-0.77-0.65
									l-0.52-2.08l-2.94-4.08l-2.08-1.31l-1.04,0.35l-5.65,9.81c-0.41,0.75-0.89,1.46-1.44,2.12c-0.56,0.67-1.06,1-1.52,1
									c-0.93,0-1.61-0.39-2.04-1.17c-0.43-0.78-0.65-1.6-0.65-2.48c0-0.75,0.15-1.42,0.44-2l2.08-3.65l1.38-2.77l1.4-1.23
									l1.65-3.02l0.79-2.96l1.04-1.65c0,0-0.41-0.39-1.23-1.17c-0.81-0.79-1.77-1.79-2.9-3c-1.12-1.22-2.24-2.48-3.35-3.79
									c-1.1-1.3-1.94-2.48-2.52-3.52c-0.11-0.34-0.17-0.6-0.17-0.77c0-0.46,0.09-0.9,0.29-1.33c0.21-0.44,0.31-0.67,0.31-0.67
									s0.29-0.32,0.88-0.96c0.58-0.64,1.22-0.96,1.92-0.96c0.34,0,0.8,0.32,1.38,0.96c0.58,0.64,1.22,1.44,1.92,2.4
									c0.69,0.96,1.3,1.87,1.83,2.73c0.92,1.39,1.86,2.58,2.85,3.56c0.98,0.99,1.94,1.48,2.88,1.48c0.8,0,1.67-0.59,2.58-1.77
									c0.93-1.19,1.78-2.51,2.54-3.96c0.8-1.44,1.7-2.88,2.69-4.29c0.98-1.43,1.98-2.6,3-3.52c1.01-0.93,1.95-1.4,2.81-1.4
									c0.64,0,1.11,0.27,1.44,0.79c0.32,0.52,0.48,1.09,0.48,1.73C152.34-12.23,152.14-11.56,151.74-11.09z"/>
							</g>
						</g>
					</g>
					<g>
						<g transform="translate(304.170135, 49.27248)">
							<g>
								<path class="st8" d="M163.01,3.93c0,1.56-0.51,2.95-1.52,4.17c-1.02,1.21-2.27,1.81-3.77,1.81c-2.38,0-4.87-0.28-7.48-0.85
									c-2.6-0.58-4.82-0.88-6.67-0.88c-1.92,0-3.33,0.36-4.23,1.08c-0.89,0.72-1.33,1.58-1.33,2.56c0,0.75,0.26,1.47,0.77,2.17
									c0.88,1.33,2.03,2.56,3.48,3.67c1.44,1.1,2.74,1.98,3.9,2.65c1.17,0.66,1.75,0.98,1.75,0.98l2.88,0.88l2.25,0.17l1.12,1.15
									l1.48,1.21l0.17,2.85l-0.85,0.88l-0.71,1.12c0,0-0.2,0.08-0.6,0.25c-0.41,0.18-0.75,0.27-1.04,0.27
									c-1.28,0-2.66-0.31-4.12-0.92c-1.47-0.6-2.72-1.19-3.73-1.77c-1.02-0.58-1.52-0.88-1.52-0.88l-3.04-1.81l-0.69-1.48l-4.88-6
									c0,0-0.2-0.46-0.6-1.37c-0.41-0.93-0.6-1.77-0.6-2.52c0-0.8,0.11-1.7,0.33-2.69c0.23-0.98,0.35-1.48,0.35-1.48l0.19-5.21
									c0-0.34,0.08-0.95,0.25-1.81c0.18-0.88,0.35-1.67,0.52-2.4c0.18-0.72,0.27-1.08,0.27-1.08s0.38-0.4,1.12-1.21
									c0.75-0.82,1.65-1.75,2.69-2.79c1.04-1.04,2-1.88,2.88-2.52c0.97-0.64,1.92-1.13,2.85-1.48c0.93-0.34,1.4-0.52,1.4-0.52
									l1.92-0.88l4.42-0.42c3.3,0,5.86,1.36,7.69,4.08C162.1-4.38,163.01-0.71,163.01,3.93z M158.16-0.59
									c0-1.28-0.47-2.32-1.4-3.12c-0.93-0.8-2-1.42-3.21-1.83c-0.29-0.11-0.64-0.19-1.04-0.25c-0.41-0.05-0.78-0.08-1.12-0.08
									c-0.35,0-0.66,0.02-0.92,0.04c-0.27,0.03-0.4,0.04-0.4,0.04l-2.08,1.48l-2.6,0.17c0,0-0.31,0.24-0.92,0.71
									c-0.6,0.46-1.2,1.01-1.81,1.65c-0.61,0.64-0.92,1.24-0.92,1.81c0,1.04,0.57,2,1.73,2.88c0.29,0.22,0.61,0.33,0.96,0.33
									c0.4,0,0.8-0.08,1.21-0.25c0.42-0.18,0.85-0.27,1.31-0.27c0.29,0,0.53,0.04,0.71,0.1l2.42,0.77l2.35-0.25
									c2.38-0.34,3.92-0.75,4.65-1.21C157.8,1.65,158.16,0.74,158.16-0.59z"/>
							</g>
						</g>
					</g>
					<g>
						<g transform="translate(339.404044, 49.27248)">
							<g>
								<path class="st8" d="M156.26-25.26l-1.38,11.21v1.92l-0.52,3.56l-0.27,11.9l-0.77,6.06l-0.35,8l0.08,4.33l-0.69,2.17
									l-0.44,3.65c-0.17,1.22-0.58,2.44-1.25,3.65c-0.67,1.22-1.52,1.83-2.56,1.83c-0.64,0-1.18-0.62-1.62-1.87
									c-0.43-1.24-0.65-2.44-0.65-3.6c0-1.15,0.28-2.58,0.83-4.29c0.55-1.71,0.86-3.11,0.92-4.21l0.25-6.77l-0.17-2.52l1.48-6.77
									l0.25-11.46l0.79-4.08l0.17-3.73c0,0,0.16-0.48,0.48-1.44c0.32-0.96,0.51-1.86,0.56-2.73c0.05-0.42,0.08-0.92,0.08-1.52
									c0-0.61,0-1.18,0-1.71c0-0.51,0-0.96,0-1.33s0-0.56,0-0.56l0.79-2.79l0.25-1.9c0.12-0.64,0.43-1.07,0.92-1.31
									c0.48-0.23,1.02-0.35,1.6-0.35c0.58,0,0.94,0.45,1.08,1.35c0.15,0.91,0.23,1.84,0.23,2.81c0,0.7-0.02,1.29-0.06,1.79
									C156.27-25.5,156.26-25.26,156.26-25.26z"/>
							</g>
						</g>
					</g>
					<g>
						<g transform="translate(361.807803, 49.27248)">
							<g>
								<path class="st8" d="M178.33-4.84c0,1.5-0.27,2.57-0.79,3.21c-0.52,0.64-1.05,1.02-1.6,1.15c-0.56,0.11-0.83,0.17-0.83,0.17
									l-3.54-4.35l-1.92-0.88c0,0-0.35,0.06-1.04,0.19c-0.7,0.11-1.48,0.33-2.35,0.65c-0.86,0.32-1.64,0.81-2.33,1.48
									c-0.7,0.67-1.04,1.58-1.04,2.73c0,1.39,0.67,2.43,2,3.12l5.02,2.35l1.23,1.65l2,0.96l1.46,3.9c0,0,0.05,0.32,0.17,0.96
									c0.12,0.64,0.26,1.33,0.4,2.08c0.15,0.75,0.23,1.3,0.23,1.65c0,2.21-0.28,3.9-0.83,5.06c-0.54,1.16-0.81,1.73-0.81,1.73
									l-0.79,2.17l-4.69,2.6c0,0-0.6,0.35-1.79,1.04c-1.18,0.69-2.79,1.04-4.81,1.04c-1.79,0-3.92-0.36-6.38-1.08
									c-2.46-0.72-4.79-1.6-6.98-2.65c-0.7-0.42-1.39-1.04-2.08-1.88c-0.7-0.83-1.04-1.74-1.04-2.73c0-0.47,0.31-0.9,0.94-1.27
									c0.64-0.38,0.96-0.56,0.96-0.56l2,0.44h2l3.81,2.08l2.08,0.08c0,0,0.33,0.12,1,0.35c0.67,0.24,1.42,0.47,2.25,0.71
									c0.84,0.22,1.5,0.33,1.96,0.33c1.04,0,2.23-0.38,3.56-1.12c1.33-0.75,2.49-1.71,3.48-2.9c0.98-1.19,1.48-2.43,1.48-3.71
									c0-0.8-0.32-1.64-0.96-2.5c-0.64-0.88-1.56-1.83-2.77-2.88c-1.97-1.73-3.64-2.99-5-3.77c-1.36-0.79-2.39-1.55-3.08-2.27
									c-0.7-0.72-1.04-1.78-1.04-3.17c0-2.61,0.28-4.59,0.85-5.96c0.58-1.36,0.88-2.04,0.88-2.04l2.79-2.6l2.25-0.52
									c0,0,0.34-0.08,1.04-0.25c0.69-0.18,1.47-0.34,2.33-0.48c0.88-0.15,1.6-0.23,2.19-0.23c1.21,0,2.45,0.35,3.73,1.04
									c1.28,0.7,2.33,1.51,3.17,2.44C177.9-6.35,178.33-5.54,178.33-4.84z"/>
							</g>
						</g>
					</g>
				</g>
			</g>
		</g>
	</g>
</g>
</svg>
