<svg xmlns="http://www.w3.org/2000/svg" width="630" height="157" version="1.2" viewBox="0 0 472.5 117.75">
    <defs>
        <clipPath id="a">
            <path d="M0 0h453v94H0z"/>
        </clipPath>
    </defs>
    <g fill="#84d332" clip-path="url(#a)" transform="translate(11 14)">
        <path d="M62.14 55.3a2.2 2.2 0 0 1-.86 1.7c-.56.5-1.2.75-1.89.75-.54 0-1.06-.22-1.56-.65-.5-.41-.8-1.09-.95-2.03l-1.2-7.12-.96-2.3-.14-4.53-.45-2.08.45-3.56-1.19-14.25a7.75 7.75 0 0 0-.56-2.38c-.32-.78-.83-1.18-1.52-1.18-.5 0-1 .31-1.5.93-.49.62-.93 1.27-1.32 1.96l-3.41 5.5-3.72 8.83-3.62 4-2.6 4.23c-.3.54-.62 1-.94 1.38-.32.37-.85.56-1.59.56-.69 0-1.2-.32-1.52-.97-.32-.65-.6-1.29-.85-1.94l-1.86-5.56-.9-1.19-.51-2.6-1.56-1.77-.57-1.11c-.36-.74-.83-1.64-1.4-2.7a43.83 43.83 0 0 0-1.9-3.24c-.68-1.1-1.35-2-2-2.75-.63-.74-1.2-1.11-1.7-1.11-.49 0-.98.4-1.48 1.19-.5.8-.73 1.68-.73 2.67 0 .45.1.96.32 1.53.22.56.33 1.22.33 1.95 0 .7-.1 1.46-.3 2.27-.2.81-.4 1.5-.59 2.08l-.3.86.16 2.43-.51 2.9.21 6.01-.67 2.53-.44 5.64c-.05.6-.25 1.19-.6 1.78-.35.6-.8.9-1.33.9-.45 0-1.01-.2-1.67-.6-.67-.4-1-.91-1-1.56 0-.54.07-1.18.21-1.92.16-.75.3-1.4.46-1.94l.22-.81-.3-1.57.81-4.45v-6.45l.75-2.46.14-2.37c.1-1.58.16-3.61.16-6.08 0-2.67.2-5.12.6-7.34.39-2.23.92-4.02 1.59-5.38.66-1.36 1.4-2.04 2.18-2.04.4 0 .84.23 1.33.7.5.47.92.98 1.27 1.51a132.1 132.1 0 0 1 4.48 6.36l.56.85 1.35 1.4 1.54 4.08a172.75 172.75 0 0 0 2.49 3.16c.68.87 1.26 1.7 1.75 2.48.4.6.66 1.27.81 2.02.16.74.35 1.4.6 1.97.25.56.74.84 1.48.84.79 0 1.66-.6 2.6-1.78.94-1.19 2.2-3.41 3.79-6.69.49-1.03 1.13-2.31 1.92-3.84A2967.1 2967.1 0 0 0 47 13.23c.79-1.54 1.46-2.82 2-3.83.55-1.02.85-1.6.9-1.75a3.35 3.35 0 0 1 1.93-1.7c.84-.3 1.46-.45 1.86-.45.69 0 1.14.47 1.36 1.42.22.93.44 2.24.64 3.92a249.9 249.9 0 0 1 1.44 5.83 46.65 46.65 0 0 1 .89 4.64 11.3 11.3 0 0 1-.06 2.31 10.37 10.37 0 0 0-.08 2.25c.02.27.05.53.1.78.15.65.36 1.3.63 1.94l.42.95.14 9.72 2.6 12.69.26 1.67c.07.47.11 1.03.11 1.67ZM101.63 47.73l-.05 1.22c-.02.81-.1 1.65-.22 2.53-.12.87-.33 1.37-.62 1.52a2.67 2.67 0 0 1-1.64.03l-.38-.11-2.97-2.22-5.94 1.25a27.6 27.6 0 0 1-6.21.67c-1.4 0-2.47-.5-3.24-1.48l-2.4-3.11c-.75-.95-1.4-1.9-1.91-2.86a5.47 5.47 0 0 1-.77-2.42c0-1.73.25-3.35.74-4.85a25.68 25.68 0 0 1 3.4-6.83l.75-1.01 1.79-2.67 1.34-.6 1.14-.65a5.03 5.03 0 0 1 2.56-.68c.69 0 1.46.18 2.3.52.84.34 1.59.52 2.23.52.4 0 .7-.1.9-.3l1.4-1.49.4-.14c.28-.1.56-.15.87-.15.43 0 .9.38 1.39 1.15.5.78.94 1.72 1.34 2.83.4 1.1.65 2.18.75 3.22l.38 3.19 1.54 6.98v3.27Zm-6.47-7.58c0-.54-.1-1.08-.27-1.62l-.25-.83-1.56-2.52-.66-1.4-.78-.49c-.52-.32-1.2-.63-2.01-.92a7.5 7.5 0 0 0-2.63-.45c-1.24 0-2.46.4-3.67 1.18-1.21.8-2.23 1.84-3.05 3.13a7.6 7.6 0 0 0-1.22 4.14c0 .45.1.96.3 1.53a61.4 61.4 0 0 0 .81 2.19l2 1.56 1.27 1.11 1.03.49c.7.32 1.24.48 1.64.48 2.72 0 4.9-.66 6.56-2a6.79 6.79 0 0 0 2.49-5.58ZM143.69 40.15v.75a3.5 3.5 0 0 1-.52 1.92l-2.37 3.27c-.06.05-.31.2-.78.45-.47.24-1.1.49-1.9.74-.34.2-.86.47-1.56.82-.68.35-1.23.52-1.62.52h-.08l-6.01-.53h-.14c-.94 0-1.61.6-2 1.78-.4 1.19-.6 2.5-.6 3.94v.75l.3 4.73c.04.85.23 1.44.58 1.78.35.35.77.65 1.26.9l1.49.59a36.43 36.43 0 0 0 2.02 2.16 70.32 70.32 0 0 1 5.54 4.93 11.67 11.67 0 0 1 2.67 3.9c.5 1.28.75 2.9.75 4.82 0 4.05-1.41 7.18-4.23 9.38-2.82 2.2-6.7 3.3-11.64 3.3a16.1 16.1 0 0 1-6.02-1.04 19.62 19.62 0 0 1-4-2.03l-1.4-1-4.62-4.16-.51-2.53-.36-1.56c-.25-1.03-.38-2.1-.38-3.19 0-6.37 2.75-10.48 8.24-12.31l5.64-2.9.3-2.58-.08-2 .51-2.91-.07-1.78.53-3.19v-.14c0-.5-.28-1.1-.83-1.78a21.17 21.17 0 0 0-2.9-2.9l-3.04-4.3-.73-4.38.67-3.56.95-.97.46-.97 2.37-2.52a12.57 12.57 0 0 1 3.56-3 9 9 0 0 1 4.38-1.01c.25 0 .68.12 1.3.34l2 .74a45.04 45.04 0 0 1 2.64 1.08l4.53 1.34c1.03.3 1.97 1.16 2.84 2.6.88 1.43 1.57 3.2 2.08 5.27.52 2.08.78 4.22.78 6.44Zm-7.86 39.63-.6-2.52v-2.08c0-.55-.49-1.33-1.48-2.34a40.1 40.1 0 0 0-7.5-5.9c-1.28-.75-2.22-1.12-2.81-1.12-.8 0-1.76.25-2.9.74-1.14.5-2.16 1-3.05 1.53-.89.52-1.4.85-1.55 1l-1.03 1.05-.49.43c-.32.3-.67.62-1.04.94-.37.32-.63.58-.78.78l-.6 2.52c.1.4.28 1.17.52 2.33.25 1.16.68 2.34 1.3 3.53a6.8 6.8 0 0 0 2.57 2.75 17.6 17.6 0 0 0 5.16 2.25c1.7.42 3.25.64 4.64.64 1.48 0 2.96-.3 4.44-.86a11.7 11.7 0 0 0 3.75-2.22c1.02-.92 1.53-1.87 1.53-2.86 0-.25-.03-.45-.08-.6Zm2.97-42.22c0-2.03-.56-3.92-1.67-5.67-1.12-1.76-2.44-2.84-3.97-3.24l-1.19-.37-1.86.23-1.62-.75-1.2-.37c-.3-.1-.55-.14-.74-.14-.84 0-1.7.43-2.6 1.3-.88.86-1.62 1.86-2.21 3a6.71 6.71 0 0 0-.9 3.04c0 1.44.52 2.85 1.55 4.23a11.78 11.78 0 0 0 4.24 3.43c1.78.88 3.73 1.32 5.86 1.32 2.08 0 3.65-.55 4.72-1.67a6.03 6.03 0 0 0 1.59-4.34ZM166.1 25.3l-.6 3.87.46 8.53-.38 1.72-.37 1.56a12.68 12.68 0 0 0-.22 5c.1.77.21 1.44.33 2.02l.19.84-.36 1.56c-.2.74-.54 1.4-1.02 1.97-.47.56-1 .84-1.6.84-.74 0-1.23-.24-1.48-.73a5.32 5.32 0 0 1-.14-3.5c.15-.6.22-1.16.22-1.7l-.22-4.83-.1-1.22a68.52 68.52 0 0 1-.34-7.08c-.01-1.24.04-2.41.13-3.53.1-1.11.28-2.02.53-2.7l.67-2.02.74-2.14c.15-.4.43-.75.82-1.08.4-.32.77-.48 1.11-.48.6 0 .96.32 1.08.97l.19.95Zm-.6-17.13c0 1.38-.33 2.55-1 3.5-.66.93-1.37 1.43-2.1 1.48h-.38c-.5 0-.95-.06-1.37-.19-.42-.12-.7-.33-.85-.64l-.89-1.48.36-2.08 1.78-1.78.97-1.48 1.56.15c.65.1 1.13.33 1.44.7.32.38.49.99.49 1.82ZM205.43 31.4l-2.3.9-2-2.54-2.82-1.62-1.94.37-1.33-.08-1.64.74-1.92.75-.7.89a20.54 20.54 0 0 0-3.27 6.13c-.47 1.35-.7 2.79-.7 4.32 0 1.44.37 2.64 1.1 3.61a8.6 8.6 0 0 0 2.2 2.11l1.07.67 10.7-.51h.07c.6 0 1.17.27 1.73.8.57.55.86 1.12.86 1.71 0 .5-.33.94-1 1.31-.67.37-1.5.75-2.48 1.14l-1.69.75a4 4 0 0 1-1.58.36c-.25 0-.7-.06-1.34-.18l-1.78-.36-.81-.19-2.75-.08a4.31 4.31 0 0 1-2.79-.92c-.61-.57-1.44-1.3-2.48-2.2l-2.6-2.22-.15-1.78-.81-3.35.3-1.78.07-1.86 2.22-7.34c.1-.4.43-.9.97-1.49s1.13-1.17 1.78-1.73a37.3 37.3 0 0 1 1.67-1.4l.7-.57 2-1.4h1.49l.81-.2a6.79 6.79 0 0 1 1.49-.18c1.58 0 3.1.25 4.56.75 1.47.5 2.68 1.1 3.64 1.84.97.75 1.45 1.46 1.45 2.16ZM276.73 15.23c0 2.12-.43 4.05-1.3 5.78a19 19 0 0 1-3.15 4.56 26.6 26.6 0 0 1-6.94 5.4l-1.3.65-2 1.64-4.59.44-3.12.89-1.49 3.1-.06 4.1.36 1.49-.36 3.26v4l-.08 4.38c0 .35-.15.74-.45 1.15-.3.42-.6.77-.92 1.07l-.49.45-.45.67c-.3.45-.61.67-.95.67-.45 0-.8-.18-1.02-.53a4.1 4.1 0 0 1-.48-1.03l-.14-.52-.74-1.48.44-1.78-.14-3.42.89-3.03v-7.88l.67-2.51-.08-3.72.81-4.52.08-4.6.19-.82c.13-.54.2-1.09.25-1.64.16-.6.24-1.24.27-1.95.02-.72.03-1.55.03-2.49v-4.53c0-2.77.6-4.71 1.78-5.83 1.19-1.11 3.22-1.67 6.1-1.67.78 0 1.6.06 2.48.19l1.3.18 7.2 2.22a18.92 18.92 0 0 1 4.14 2.69c.9.74 1.66 1.54 2.3 2.4.64.87.96 1.73.96 2.57Zm-5.33 1.62c0-1.18-.4-2.22-1.18-3.1-.8-.9-1.78-1.4-2.97-1.49l-3.8-.45-1.7-1.11-1.92.22c-1.3.1-2.27.42-2.91.93a3.63 3.63 0 0 0-1.25 1.66c-.2.6-.3 1.1-.3 1.49 0 .2.01.35.03.45l.05.14-1.12 4.01.23 2-.67 2.52-.22 1.64v.38c0 .54.2 1 .6 1.37.39.37.96.55 1.7.55 1.18 0 2.64-.36 4.37-1.08a30.89 30.89 0 0 0 5.11-2.73 20.44 20.44 0 0 0 4.24-3.65c1.14-1.3 1.71-2.56 1.71-3.75ZM298.48 25.3l-.6 3.87.46 8.53-.38 1.72-.37 1.56a12.68 12.68 0 0 0-.22 5c.1.77.2 1.44.33 2.02l.18.84-.36 1.56c-.2.74-.53 1.4-1.01 1.97-.47.56-1 .84-1.6.84-.74 0-1.23-.24-1.48-.73a5.32 5.32 0 0 1-.14-3.5c.14-.6.22-1.16.22-1.7l-.22-4.83-.1-1.22a68.52 68.52 0 0 1-.34-7.08c-.01-1.24.03-2.41.13-3.53.1-1.11.28-2.02.53-2.7l.67-2.02.73-2.14c.16-.4.43-.75.83-1.08.4-.32.77-.48 1.11-.48.6 0 .96.32 1.08.97l.19.95Zm-.6-17.13c0 1.38-.33 2.55-1 3.5-.66.93-1.37 1.43-2.1 1.48h-.38c-.5 0-.95-.06-1.38-.19-.41-.12-.7-.33-.84-.64l-.89-1.48.36-2.08 1.78-1.78.97-1.48 1.56.15c.65.1 1.13.33 1.44.7.32.38.48.99.48 1.82ZM341.15 22.2l-2.46 3.1-.65 1.65-2.75 2.6-1.7 3.34a9.14 9.14 0 0 1-.83 1.45c-.3.42-.44.95-.44 1.6 0 .68.26 1.47.78 2.37a19.8 19.8 0 0 0 2.33 3.25l.37 1.42 2.6 2.14.3 2.16v.37c0 .45-.1 1.06-.3 1.83-.2.76-.74 1.14-1.63 1.14-.54 0-1.13-.2-1.78-.6-.65-.39-1.2-.77-1.64-1.13l-.66-.57-.45-1.78-2.51-3.5-1.79-1.1-.89.29-4.82 8.39c-.35.65-.75 1.26-1.22 1.83-.47.56-.9.84-1.3.84-.8 0-1.37-.33-1.75-1a4.26 4.26 0 0 1-.19-3.83l1.78-3.1 1.2-2.38 1.18-1.05 1.4-2.6.68-2.5.89-1.43-1.05-1a75.92 75.92 0 0 1-5.34-5.78 18.74 18.74 0 0 1-2.14-3.02c-.1-.28-.16-.5-.16-.65 0-.4.09-.78.27-1.16l.26-.56.74-.81c.5-.54 1.04-.82 1.64-.82.29 0 .68.28 1.17.82a33.29 33.29 0 0 1 3.2 4.38 20.2 20.2 0 0 0 2.44 3.04c.84.84 1.66 1.26 2.45 1.26.7 0 1.44-.5 2.24-1.51.79-1.02 1.5-2.15 2.14-3.4a48.8 48.8 0 0 1 2.3-3.65c.84-1.22 1.69-2.22 2.56-3.01.87-.8 1.68-1.2 2.42-1.2.54 0 .94.24 1.22.68.27.44.4.93.4 1.49 0 .74-.17 1.3-.51 1.7ZM380.19 35.04c0 1.34-.44 2.53-1.32 3.56a4.04 4.04 0 0 1-3.21 1.55c-2.04 0-4.17-.24-6.4-.73-2.21-.5-4.12-.75-5.7-.75-1.64 0-2.84.31-3.6.93a2.74 2.74 0 0 0-1.15 2.2c0 .63.22 1.24.67 1.84a12.34 12.34 0 0 0 2.96 3.12 32.61 32.61 0 0 0 4.82 3.11l2.46.75 1.92.14.97.97 1.26 1.05.14 2.43-.73.75-.6.96-.52.22a2.2 2.2 0 0 1-.88.23 9.3 9.3 0 0 1-3.53-.78 28.9 28.9 0 0 1-3.19-1.52l-1.3-.75-2.59-1.54-.6-1.27-4.15-5.12-.53-1.2a5.46 5.46 0 0 1-.52-2.15c0-.69.1-1.45.3-2.3l.3-1.26.15-4.44c0-.3.07-.82.22-1.56a49 49 0 0 1 .44-2.03l.23-.94.96-1.03c.64-.7 1.4-1.49 2.3-2.38.89-.89 1.7-1.6 2.45-2.15.84-.55 1.66-.97 2.45-1.27l1.19-.45 1.62-.73 3.8-.38c2.81 0 5 1.17 6.56 3.5 1.57 2.32 2.35 5.47 2.35 9.42Zm-4.16-3.86c0-1.1-.4-1.98-1.19-2.67a7.88 7.88 0 0 0-3.64-1.78 6.68 6.68 0 0 0-1.75-.03l-.33.03-1.78 1.25-2.22.16-.78.59c-.52.4-1.04.87-1.56 1.4-.52.55-.78 1.07-.78 1.57 0 .89.5 1.7 1.48 2.45.25.2.52.3.82.3.35 0 .7-.07 1.04-.22a2.64 2.64 0 0 1 1.7-.16l2.08.68 2-.24c2.04-.29 3.36-.63 3.97-1.03.63-.4.94-1.16.94-2.3ZM404.52 10.1l-1.19 9.57v1.64l-.44 3.04-.23 10.16-.66 5.2-.3 6.83.07 3.7-.6 1.86-.36 3.11a9.28 9.28 0 0 1-1.09 3.11c-.56 1.04-1.29 1.57-2.17 1.57-.56 0-1.02-.54-1.4-1.6a9.4 9.4 0 0 1-.54-3.08c0-.98.24-2.2.7-3.67.47-1.45.73-2.65.79-3.6l.21-5.79-.14-2.14 1.27-5.8.22-9.8.67-3.48.14-3.18.4-1.22c.28-.82.44-1.6.5-2.35.04-.34.07-.77.07-1.3V9.82l.67-2.38.22-1.64c.1-.54.35-.9.77-1.1.42-.2.89-.3 1.39-.3.49 0 .8.38.92 1.15.12.76.19 1.56.19 2.4 0 .6-.02 1.11-.05 1.54l-.03.62ZM442.51 27.54c0 1.28-.22 2.2-.67 2.75-.45.55-.9.87-1.37.97l-.7.14-3.05-3.72-1.63-.73-.89.15c-.6.1-1.27.28-2.02.55-.74.27-1.4.7-2 1.27a3.07 3.07 0 0 0-.87 2.33c0 1.18.57 2.07 1.7 2.67l4.3 2.01 1.05 1.4 1.7.82 1.27 3.35a384 384 0 0 0 .46 2.59c.13.65.2 1.12.2 1.4 0 1.9-.24 3.33-.71 4.32l-.7 1.48-.68 1.85-4 2.23-1.53.9c-1.01.58-2.38.88-4.1.88-1.54 0-3.36-.31-5.46-.94-2.1-.6-4.1-1.36-5.97-2.25a7.12 7.12 0 0 1-1.78-1.59 3.6 3.6 0 0 1-.9-2.34c0-.4.28-.76.82-1.08l.81-.49 1.7.38h1.73l3.26 1.78 1.78.08.85.3c.57.2 1.22.4 1.93.59.72.2 1.28.3 1.68.3.88 0 1.89-.32 3.03-.97a10.78 10.78 0 0 0 2.97-2.49 4.9 4.9 0 0 0 1.26-3.15c0-.7-.28-1.42-.83-2.16a15.91 15.91 0 0 0-2.36-2.45 28.43 28.43 0 0 0-4.28-3.22 11.89 11.89 0 0 1-2.62-1.92c-.6-.63-.9-1.53-.9-2.72 0-2.23.25-3.92.74-5.08l.75-1.75 2.38-2.22 1.93-.45.88-.22c.6-.15 1.26-.28 2-.4a11.7 11.7 0 0 1 1.86-.2c1.04 0 2.1.3 3.19.9 1.09.59 2 1.28 2.71 2.07.72.8 1.08 1.49 1.08 2.08Zm0 0"/>
    </g>
</svg>