<svg class="logo" height="416" version="1.2" viewBox="0 0 836.25 312" id="svg2"
          xmlns="http://www.w3.org/2000/svg" xmlns:svg="http://www.w3.org/2000/svg">
    <defs id="defs2" />
    <path id="path2"
            d="m 579.529,188.738 c 2.781,-0.5 4.172,-1.906 4.172,-4.218 0,-2.32 -0.742,-4.93 -2.219,-7.829 -1.469,-2.906 -3.633,-5.66 -6.484,-8.265 -7.492,-6.727 -17.625,-10.094 -30.407,-10.094 -6.312,0 -12.203,1.055 -17.671,3.156 -5.805,-2.945 -10.43,-7.613 -13.875,-14 -3.45,-6.394 -5.172,-13.289 -5.172,-20.687 0,-19.352 8.07,-34.285 24.218,-44.797 13.883,-9 31.004,-13.5 51.36,-13.5 15.133,0 27.875,1.621 38.219,4.86 10.343,3.242 18.796,7.382 25.359,12.421 1.937,5.555 2.906,11.32 2.906,17.297 0,5.969 -0.804,11.39 -2.406,16.266 -1.594,4.875 -3.906,8.789 -6.938,11.734 -2.855,-2.101 -8.027,-4.25 -15.515,-6.437 -7.492,-2.188 -14.305,-3.282 -20.438,-3.282 -6.136,0 -10.234,0.383 -12.297,1.141 -2.062,0.762 -3.093,1.937 -3.093,3.531 0,0.762 0.125,1.477 0.375,2.14 2.945,-0.75 6.734,-1.124 11.36,-1.124 16.394,0 29.769,3.87 40.124,11.61 12.188,9.25 18.281,23.124 18.281,41.624 0,16.313 -6.601,29.856 -19.797,40.625 -14.304,11.524 -33.523,17.281 -57.656,17.281 -13.293,0 -24.82,-0.992 -34.578,-2.968 -9.75,-1.969 -19.25,-5.438 -28.5,-10.407 -6.312,-9.164 -9.469,-18.476 -9.469,-27.937 0,-9.469 3.235,-17.313 9.703,-23.531 6.477,-6.227 14.446,-9.344 23.907,-9.344 9.468,0 17.207,1.937 23.218,5.812 6.02,3.868 10.458,10.172 13.313,18.922 z M 768.9,136.379 v 88.687 c -3.875,3.368 -9.055,6.184 -15.531,8.454 -6.47,2.27 -14.336,3.406 -23.594,3.406 -9.25,0 -17.11,-2.059 -23.578,-6.172 -7.324,-4.457 -10.985,-10.766 -10.985,-18.922 v -81.25 h -29.39 c -6.055,-8.664 -9.078,-18.129 -9.078,-28.39 0,-6.977 1.109,-13.051 3.328,-18.22 2.226,-5.175 4.984,-9.195 8.265,-12.062 h 130.454 c 2.437,3.793 4.453,8.383 6.046,13.766 1.602,5.375 2.407,10.715 2.407,16.015 0,9.93 -2.188,17.227 -6.563,21.891 -4.375,4.668 -10.262,7 -17.656,7 h -36.969 a 4.762,4.762 0 0 0 -0.375,1.89 c 0,1.512 0.879,2.524 2.64,3.032 1.852,0.586 5.805,0.875 11.86,0.875 z m 0,0 M 185.435,100.926 v 125.406 c -9.418,7.063 -21.485,10.594 -36.203,10.594 -11.356,0 -20.356,-2.313 -27,-6.938 -6.98,-4.707 -10.469,-11.52 -10.469,-20.437 v -24.969 h 8.953 c 3.445,0 5.613,-0.441 6.5,-1.328 0.883,-0.883 1.328,-2.336 1.328,-4.36 H 88.92 c 0,2.024 0.38,3.477 1.14,4.36 0.759,0.887 2.567,1.328 5.423,1.328 h 9.593 v 41.75 c -6.48,4.211 -12.62,7.027 -18.421,8.453 a 74.32,74.32 0 0 1 -17.797,2.14 c -11.356,0 -20.352,-2.312 -26.985,-6.937 -6.992,-4.707 -10.484,-11.52 -10.484,-20.437 V 84.02 c 4.375,-4.625 9.781,-8.176 16.219,-10.657 6.437,-2.476 13.144,-3.718 20.125,-3.718 10.176,0 18.797,2.523 25.86,7.562 7.655,5.719 11.483,13.625 11.483,23.719 v 22.469 h 16.016 c 0,-2.188 -0.402,-3.68 -1.203,-4.485 -0.793,-0.8 -2.074,-1.203 -3.844,-1.203 h -4.281 V 84.02 c 4.375,-4.625 9.773,-8.176 16.203,-10.657 6.438,-2.476 13.145,-3.718 20.125,-3.718 10.176,0 18.797,2.523 25.86,7.562 7.656,5.719 11.484,13.625 11.484,23.719 z m 94.732,46.687 c 0,-8.414 -0.383,-14.195 -1.14,-17.343 -0.75,-3.157 -2.137,-4.735 -4.157,-4.735 -1.262,0 -2.398,0.422 -3.406,1.266 0.164,1.512 0.414,3.527 0.75,6.047 0.344,2.523 0.515,7.906 0.515,16.156 v 8.187 c 0,5.72 -0.125,9.887 -0.375,12.5 -0.25,2.606 -0.464,4.836 -0.64,6.688 -0.086,1.012 -0.168,2.016 -0.25,3.016 1.008,0.843 2.144,1.265 3.406,1.265 2.02,0 3.406,-1.57 4.156,-4.719 0.758,-3.156 1.141,-8.94 1.141,-17.359 z m -5.047,91.078 c -14.969,0 -28.7,-3.09 -41.187,-9.265 -12.493,-6.188 -22.563,-15.649 -30.22,-28.39 -7.648,-12.74 -11.468,-28.657 -11.468,-47.75 0,-27.665 8.32,-49.282 24.969,-64.845 14.8,-13.707 33.851,-20.562 57.156,-20.562 25.313,0 45.348,7.844 60.11,23.531 14.757,15.688 22.14,36.313 22.14,61.875 0,28.43 -7.906,50.125 -23.719,65.094 -14.375,13.543 -33.636,20.312 -57.78,20.312 z m 156.179,-49.953 c 2.781,-0.5 4.172,-1.906 4.172,-4.218 0,-2.32 -0.743,-4.93 -2.22,-7.829 -1.468,-2.906 -3.632,-5.66 -6.484,-8.265 -7.492,-6.727 -17.625,-10.094 -30.406,-10.094 -6.312,0 -12.203,1.055 -17.672,3.156 -5.804,-2.945 -10.43,-7.613 -13.875,-14 -3.449,-6.394 -5.172,-13.289 -5.172,-20.687 0,-19.352 8.07,-34.285 24.22,-44.797 13.882,-9 31.003,-13.5 51.359,-13.5 15.132,0 27.875,1.621 38.218,4.86 10.344,3.242 18.797,7.382 25.36,12.421 1.937,5.555 2.906,11.32 2.906,17.297 0,5.969 -0.805,11.39 -2.406,16.266 -1.594,4.875 -3.907,8.789 -6.938,11.734 -2.855,-2.101 -8.027,-4.25 -15.515,-6.437 -7.493,-2.188 -14.305,-3.282 -20.438,-3.282 -6.137,0 -10.234,0.383 -12.297,1.141 -2.062,0.762 -3.094,1.937 -3.094,3.531 0,0.762 0.125,1.477 0.375,2.14 2.946,-0.75 6.735,-1.124 11.36,-1.124 16.394,0 29.77,3.87 40.125,11.61 12.187,9.25 18.281,23.124 18.281,41.624 0,16.313 -6.601,29.856 -19.797,40.625 -14.304,11.524 -33.523,17.281 -57.656,17.281 -13.293,0 -24.82,-0.992 -34.578,-2.968 -9.75,-1.969 -19.25,-5.438 -28.5,-10.407 -6.313,-9.164 -9.469,-18.476 -9.469,-27.937 0,-9.469 3.234,-17.313 9.703,-23.531 6.477,-6.227 14.446,-9.344 23.906,-9.344 9.47,0 17.208,1.937 23.22,5.812 6.019,3.868 10.456,10.172 13.312,18.922 z m 0,0" />
</svg>